# xmcd
# Copyright (C) 1995-1998 Ti Kan
#
# Track frame offsets:
#       150
#       16740
#       37756
#       57571
#       74625
#
# Disc length: 1325 seconds
#
# Revision: 0
# Processed by: cddbd v1.5.2PL0 Copyright (c) Steve Scherf et al.
# Submitted via: CD-Transfer v1.0
#
DISCID=3c052b05
DTITLE=Larytta - S/T
DYEAR=05
DGENRE=
TTITLE0=The Money
TTITLE1=Just In Time
TTITLE2=Hard Terrains
TTITLE3=Zombie Teenage State
TTITLE4=Rodeo
EXTD=
EXTT0=
EXTT1=
EXTT2=
EXTT3=
EXTT4=
PLAYORDER=
